<svg width="148" height="82" viewBox="0 0 148 82" fill="none" xmlns="http://www.w3.org/2000/svg">
<path fill-rule="evenodd" clip-rule="evenodd" d="M72.3717 50.2073C73.5336 43.7452 75.6383 38.137 78.6872 33.382C81.7372 28.6268 85.4031 24.9968 89.686 22.4921C93.97 19.9874 98.5066 18.7351 103.298 18.7351C107.291 18.7351 110.577 19.5518 113.154 21.1853C115.732 22.8188 117.529 25.0513 118.545 27.8826L123.445 0.331177H147.62L133.355 80.9161H109.179L110.704 72.5308C108.671 75.3631 106.075 77.5953 102.918 79.2286C99.7598 80.8619 96.1842 81.6786 92.1912 81.6786C86.0201 81.6786 81.0469 79.6099 77.2716 75.4714C73.4963 71.3329 71.6092 65.5983 71.6092 58.2654C71.6092 55.5065 71.863 52.8208 72.3717 50.2073ZM114.732 50.2062C114.878 49.5531 114.951 48.6823 114.951 47.5927C114.951 45.1247 114.297 43.2196 112.991 41.8762C111.683 40.5328 109.905 39.8616 107.654 39.8616C105.041 39.8616 102.735 40.7685 100.739 42.5834C98.7424 44.3983 97.4542 46.9396 96.8733 50.2062C96.7278 50.8604 96.6556 51.7312 96.6556 52.8208C96.6556 55.2888 97.3087 57.1939 98.616 58.5373C99.9222 59.8807 101.701 60.5518 103.951 60.5518C106.566 60.5518 108.87 59.6449 110.867 57.8301C112.863 56.0152 114.153 53.4739 114.732 50.2062ZM55.0199 51.0747L72.0086 80.9127H45.0012L37.1604 67.0827L26.9239 80.9127H0.352539L26.7061 48.5695L10.1535 19.4938H37.1604L45.0012 33.4329L55.3465 19.4938H81.9177L55.0199 51.0747Z" fill="white"/>
</svg>
